<?xml version="1.0" standalone="no"?>
<!DOCTYPE svg PUBLIC "-//W3C//DTD SVG 20010904//EN"
 "http://www.w3.org/TR/2001/REC-SVG-20010904/DTD/svg10.dtd">
<svg version="1.0" xmlns="http://www.w3.org/2000/svg"
 width="512.000000pt" height="512.000000pt" viewBox="0 0 512.000000 512.000000"
 preserveAspectRatio="xMidYMid meet">

<g transform="translate(0.000000,512.000000) scale(0.100000,-0.100000)"
fill="#000000" stroke="none">
<path d="M2401 4329 c-198 -21 -417 -86 -604 -180 -876 -438 -1233 -1495 -802
-2375 30 -61 55 -117 55 -124 0 -10 -180 -694 -206 -781 -3 -12 83 8 388 89
l392 106 65 -38 c403 -228 851 -298 1288 -200 1023 229 1628 1292 1302 2286
-40 123 -154 354 -223 452 -185 264 -411 458 -696 595 -306 148 -627 204 -959
170z m280 -864 c64 -45 91 -104 87 -187 -4 -82 -39 -139 -108 -176 -38 -20
-56 -23 -112 -20 -82 4 -139 39 -176 108 -20 38 -23 56 -20 112 4 82 39 139
108 176 38 20 56 23 112 20 55 -3 75 -9 109 -33z m79 -1220 l0 -535 -202 2
-203 3 -3 520 c-1 286 0 526 3 533 3 9 54 12 205 12 l200 0 0 -535z"/>
</g>
</svg>
